<?xml version="1.0" encoding="UTF-8" standalone="no"?>
<svg
        xmlns:dc="http://purl.org/dc/elements/1.1/"
        xmlns:cc="http://creativecommons.org/ns#"
        xmlns:rdf="http://www.w3.org/1999/02/22-rdf-syntax-ns#"
        xmlns="http://www.w3.org/2000/svg"
        id="svg8"
        version="1.1"
        viewBox="0 0 9.5249998 9.5250004"
        height="36"
        width="36">
  <defs
          id="defs2"/>
  <metadata
          id="metadata5">
    <rdf:RDF>
      <cc:Work
              rdf:about="">
        <dc:format>image/svg+xml</dc:format>
        <dc:type
                rdf:resource="http://purl.org/dc/dcmitype/StillImage"/>
        <dc:title></dc:title>
      </cc:Work>
    </rdf:RDF>
  </metadata>
  <g
          transform="translate(0,-287.47498)"
          id="layer1">
    <g
            id="flowRoot4520-2"
            style="fill:#c0c0c0;fill-opacity:1;"
            transform="matrix(0.15510456,0,0,0.13463373,-0.24675841,288.91343)">
      <path
              id="path4528-7"
              d="M 20.64323,-1.0207109 H 55.971353 L 54.914062,4.5938722 19.221355,47.213662 H 47.440104 L 46.20052,53.411579 H 9.3046883 L 10.36198,47.796996 45.945312,5.1772055 H 19.440105 Z"/>
    </g>
    <path
            id="rect4531-2"
            d="m 2.2270368,291.76762 h 5.5802718 l -0.3073222,1.07404 H 1.916223 Z"
            style="fill:#c0c0c0;fill-opacity:1"/>
    <g
            id="flowRoot4520"
            style="fill:#ff0000;fill-opacity:1;"
            transform="matrix(0.15510456,0,0,0.13463373,-0.60517506,288.53686)">
      <path
              id="path4528"
              d="M 20.64323,-1.0207109 H 55.971353 L 54.914062,4.5938722 19.221355,47.213662 H 47.440104 L 46.20052,53.411579 H 9.3046883 L 10.36198,47.796996 45.945312,5.1772055 H 19.440105 Z"/>
    </g>
    <path
            id="rect4531"
            d="m 1.8686201,291.39106 h 5.5802724 l -0.3073222,1.07403 H 1.5578065 Z"
            style="fill:#ff0000;fill-opacity:1"/>
  </g>
</svg>
