<svg version="1.1" viewBox="0 0 16 16" xmlns="http://www.w3.org/2000/svg">
 <path transform="rotate(-45 8.92 8.22)"
       d="m11.589 0.88551-6.835e-4 -0.0025434 2.447 2.2798-0.57073 0.55737-1.1931-0.42586-2.4657-0.032844v4.4632l0.50004 0.61551v7.38h-3.5003v-7.381l0.50004-0.61902v-4.477l-0.48787 0.33623-0.36151 0.14075h-2.6509v-3h2.507l0.47501 0.22591c0.089348-0.13607 0.24331-0.22591 0.41825-0.22591h4.0004l0.38309 0.16536z"
       fill="#59A869" fill-rule="evenodd"/>
 <path d="m8 8-0.78027 1h3.7803l-1.667 2h-1.8926l-0.88086 1h1.9404l-2.5 3h6.2285l0.77148-1h-5l1.667-2h1.8926l0.88086-1h-1.9404l2.5-3z"
       fill="#db5860"/>
</svg>
